<svg width="121" height="24" viewBox="0 0 121 24" fill="none" xmlns="http://www.w3.org/2000/svg">
<path d="M43.456 6.8V18H41.376V13.2H35.584V18H33.504V6.8H35.584V11.424H41.376V6.8H43.456ZM51.6891 18.16C50.5478 18.16 49.5185 17.9147 48.6011 17.424C47.6838 16.9227 46.9638 16.2347 46.4411 15.36C45.9185 14.4747 45.6571 13.488 45.6571 12.4C45.6571 11.312 45.9185 10.3307 46.4411 9.456C46.9638 8.57067 47.6838 7.88267 48.6011 7.392C49.5185 6.89067 50.5478 6.64 51.6891 6.64C52.8305 6.64 53.8598 6.89067 54.7771 7.392C55.6945 7.88267 56.4145 8.56533 56.9371 9.44C57.4598 10.3147 57.7211 11.3013 57.7211 12.4C57.7211 13.4987 57.4598 14.4853 56.9371 15.36C56.4145 16.2347 55.6945 16.9227 54.7771 17.424C53.8598 17.9147 52.8305 18.16 51.6891 18.16ZM51.6891 16.336C52.4358 16.336 53.1078 16.1707 53.7051 15.84C54.3025 15.4987 54.7718 15.0293 55.1131 14.432C55.4545 13.824 55.6251 13.1467 55.6251 12.4C55.6251 11.6533 55.4545 10.9813 55.1131 10.384C54.7718 9.776 54.3025 9.30667 53.7051 8.976C53.1078 8.63467 52.4358 8.464 51.6891 8.464C50.9425 8.464 50.2705 8.63467 49.6731 8.976C49.0758 9.30667 48.6065 9.776 48.2651 10.384C47.9238 10.9813 47.7531 11.6533 47.7531 12.4C47.7531 13.1467 47.9238 13.824 48.2651 14.432C48.6065 15.0293 49.0758 15.4987 49.6731 15.84C50.2705 16.1707 50.9425 16.336 51.6891 16.336ZM70.2139 18L70.1979 10.576L66.5179 16.72H65.5899L61.9099 10.672V18H59.9259V6.8H61.6379L66.0859 14.224L70.4539 6.8H72.1659L72.1819 18H70.2139ZM83.6071 16.256V18H75.2071V6.8H83.3831V8.544H77.2871V11.456H82.6951V13.168H77.2871V16.256H83.6071ZM90.6329 14.048V18H88.5529V14.08L84.1529 6.8H86.3769L89.6569 12.256L92.9689 6.8H95.0169L90.6329 14.048ZM101.127 18.16C99.9853 18.16 98.956 17.9147 98.0386 17.424C97.1213 16.9227 96.4013 16.2347 95.8786 15.36C95.356 14.4747 95.0946 13.488 95.0946 12.4C95.0946 11.312 95.356 10.3307 95.8786 9.456C96.4013 8.57067 97.1213 7.88267 98.0386 7.392C98.956 6.89067 99.9853 6.64 101.127 6.64C102.268 6.64 103.297 6.89067 104.215 7.392C105.132 7.88267 105.852 8.56533 106.375 9.44C106.897 10.3147 107.159 11.3013 107.159 12.4C107.159 13.4987 106.897 14.4853 106.375 15.36C105.852 16.2347 105.132 16.9227 104.215 17.424C103.297 17.9147 102.268 18.16 101.127 18.16ZM101.127 16.336C101.873 16.336 102.545 16.1707 103.143 15.84C103.74 15.4987 104.209 15.0293 104.551 14.432C104.892 13.824 105.063 13.1467 105.063 12.4C105.063 11.6533 104.892 10.9813 104.551 10.384C104.209 9.776 103.74 9.30667 103.143 8.976C102.545 8.63467 101.873 8.464 101.127 8.464C100.38 8.464 99.708 8.63467 99.1106 8.976C98.5133 9.30667 98.044 9.776 97.7026 10.384C97.3613 10.9813 97.1906 11.6533 97.1906 12.4C97.1906 13.1467 97.3613 13.824 97.7026 14.432C98.044 15.0293 98.5133 15.4987 99.1106 15.84C99.708 16.1707 100.38 16.336 101.127 16.336ZM114.179 18.16C112.633 18.16 111.427 17.728 110.563 16.864C109.699 15.9893 109.267 14.7413 109.267 13.12V6.8H111.347V13.04C111.347 15.2373 112.297 16.336 114.195 16.336C116.083 16.336 117.027 15.2373 117.027 13.04V6.8H119.075V13.12C119.075 14.7413 118.643 15.9893 117.779 16.864C116.926 17.728 115.726 18.16 114.179 18.16Z" fill="#272727"/>
<rect width="24" height="24" fill="#272727"/>
<path d="M4.54053 11.6757L6.12611 10.0901M6.12611 10.0901L11.6757 4.54053L17.2252 10.0901M6.12611 10.0901V18.018C6.12611 18.4559 6.48106 18.8108 6.91891 18.8108H9.29728M17.2252 10.0901L18.8108 11.6757M17.2252 10.0901V18.018C17.2252 18.4559 16.8703 18.8108 16.4324 18.8108H14.054M9.29728 18.8108C9.73513 18.8108 10.0901 18.4559 10.0901 18.018V14.8468C10.0901 14.409 10.445 14.054 10.8829 14.054H12.4685C12.9063 14.054 13.2612 14.409 13.2612 14.8468V18.018C13.2612 18.4559 13.6162 18.8108 14.054 18.8108M9.29728 18.8108H14.054" stroke="#F9F9F9" stroke-linecap="round" stroke-linejoin="round"/>
</svg>
